#!OML:ASF I:\Actors\actors\Patient Classification 1\Patient 1\Session 1\Subject1.ASF
:FULLY-SPECIFIED
:DEGREES
691
root 1.01977 17.7073 7.42626 4.63906 5.21516 -8.1562
lowerback 0.672051 -0.336305 6.94599
upperback -4.5329 -0.0714923 3.11645
thorax -5.10663 -0.248827 -0.64209
lowerneck -14.4865 -3.98127 -1.58413
upperneck 35.3389 -7.03454 4.02427
head 14.9105 -2.659 0.765969
rclavicle -1.75179e-015 -4.51241e-014
rhumerus 42.1169 8.70343 -75.0133
rradius 28.7278
rwrist 63.9128
rhand -38.5607 -65.688
rfingers 7.12502
rthumb -11.58 455.348
lclavicle -1.75179e-015 -4.51241e-014
lhumerus 44.1634 -20.1157 77.41
lradius 30.0961
lwrist -39.8351
lhand -55.6346 -57.505
lfingers 7.12502
lthumb -27.987 -29.5715
rfemur -7.39841 19.5138 23.7942
rtibia 10.4322
rfoot -14.0588 -23.3718
rtoes 3.25733
lfemur -4.68133 -29.0079 -7.22574
ltibia 1.72024
lfoot -6.03753 29.6524
ltoes -12.8334
692
root 0.99135 17.7052 7.43344 4.32829 5.33639 -8.20387
lowerback 0.752116 -0.530922 6.82578
upperback -4.10895 -0.349316 3.28998
thorax -4.719 -0.361144 -0.387264
lowerneck -16.6696 -3.94955 -2.55895
upperneck 36.1092 -6.84864 4.36464
head 15.8557 -2.60531 1.07291
rclavicle 2.27608e-014 1.72943e-014
rhumerus 44.3142 2.01157 -83.8009
rradius 20.1182
rwrist 74.4504
rhand -36.6958 -63.2805
rfingers 7.12502
rthumb -9.78121 453.033
lclavicle 2.27608e-014 1.72943e-014
lhumerus 45.6137 -14.8031 84.2447
lradius 21.0716
lwrist -48.1739
lhand -52.8964 -43.0379
lfingers 7.12502
lthumb -25.3665 -14.7052
rfemur -6.95134 19.3948 24.0986
rtibia 10.3248
rfoot -14.0277 -23.4201
rtoes 2.63601
lfemur -4.46777 -28.9275 -7.27004
ltibia 1.98739
lfoot -5.96551 29.4315
ltoes -13.8535
693
root 0.962902 17.7108 7.43232 3.96976 5.34079 -8.40929
lowerback 0.763584 -0.257647 6.70152
upperback -4.25359 0.0170076 3.14856
thorax -4.85515 -0.183174 -0.481572
lowerneck -15.4532 -4.22068 -2.49232
upperneck 35.4957 -7.25575 4.40344
head 15.2847 -2.79818 1.02296
rclavicle 1.43746e-014 -1.70955e-014
rhumerus 48.5062 -17.711 -107.313
rradius 13.6513
rwrist 104.033
rhand -34.0602 -60.6693
rfingers 7.12502
rthumb -7.23767 450.526
lclavicle 1.43746e-014 -1.70955e-014
lhumerus 45.3443 -0.107338 103.962
lradius 12.0907
lwrist -72.6797
lhand -49.4555 -35.8285
lfingers 7.12502
lthumb -22.0664 -7.06749
rfemur -6.59315 19.3113 24.5786
rtibia 10.3845
rfoot -14.0923 -23.3245
rtoes 2.6097
lfemur -4.32115 -28.6355 -7.07735
ltibia 2.39814
lfoot -6.39581 29.1074
ltoes -13.3453
694
root 0.934002 17.7239 7.42782 3.62031 5.24694 -8.65778
lowerback 0.90698 0.0757285 6.6527
upperback -4.35865 0.474442 2.97943
thorax -5.01937 0.0362534 -0.652157
lowerneck -14.3209 -4.56824 -2.40848
upperneck 34.9298 -7.88729 4.72911
head 14.7998 -3.04612 1.05536
rclavicle -1.51729e-014 -8.29926e-015
rhumerus 51.8147 -25.9818 -117.228
rradius 12.0551
rwrist 112.196
rhand -29.3662 -62.1835
rfingers 7.12502
rthumb -2.70537 452.146
lclavicle -1.51729e-014 -8.29926e-015
lhumerus 45.3417 0.85242 108.796
lradius 8.82048
lwrist -74.5923
lhand -52.7018 -22.3005
lfingers 7.12502
lthumb -25.1801 6.05859
rfemur -6.34011 19.2156 25.0771
rtibia 10.5532
rfoot -14.1799 -23.0582
rtoes 3.08657
lfemur -4.18653 -28.1996 -6.80112
ltibia 2.81146
lfoot -6.81568 28.7706
ltoes -12.3034
695
root 0.906385 17.7417 7.42602 3.40281 5.12698 -8.81272
lowerback 1.00744 0.424243 6.55436
upperback -4.59873 0.951001 2.73866
thorax -5.29786 0.260032 -0.871988
lowerneck -12.5453 -4.72578 -1.7161
upperneck 33.9134 -8.19367 4.62501
head 13.905 -3.16729 0.883549
rclavicle 7.76503e-016 -5.12864e-014
rhumerus 44.0225 -16.7347 -102.018
rradius 13.8274
rwrist 90.1533
rhand -31.2518 -63.1837
rfingers 7.12502
rthumb -4.5263 453.115
lclavicle 7.76503e-016 -5.12864e-014
lhumerus 43.7332 3.90695 111.53
lradius 9.53506
lwrist -72.7074
lhand -53.2731 -25.0636
lfingers 7.12502
lthumb -25.7273 3.21736
rfemur -6.22296 19.1169 25.4126
rtibia 10.7058
rfoot -14.1493 -22.7954
rtoes 3.17155
lfemur -4.14329 -27.8346 -6.59182
ltibia 3.20352
lfoot -7.1594 28.4969
ltoes -11.3244
